<svg width="374" height="212" viewBox="0 0 374 212" fill="none" xmlns="http://www.w3.org/2000/svg">
<g id="Scene">
<g id="Person">
<path id="Vector" d="M39.2477 194.804L38.652 194.58C38.5211 194.531 25.4936 189.539 19.391 178.22C13.2881 166.9 16.2764 153.271 16.3073 153.135L16.4479 152.514L17.0433 152.737C17.1742 152.787 30.2014 157.779 36.3044 169.098C42.4073 180.418 39.419 194.047 39.3881 194.183L39.2477 194.804ZM20.3682 177.693C25.5278 187.263 35.8225 192.169 38.4309 193.289C38.9268 190.493 40.4821 179.186 35.3271 169.625C30.1727 160.065 19.8739 155.151 17.2645 154.028C16.7682 156.826 15.2135 168.132 20.3682 177.693Z" fill="#3F3D56"/>
<path id="Vector_2" d="M24.5249 175.189C35.4922 181.789 39.716 194.897 39.716 194.897C39.716 194.897 26.1584 197.305 15.1911 190.706C4.22383 184.106 0 170.998 0 170.998C0 170.998 13.5576 168.59 24.5249 175.189Z" fill="#6C63FF"/>
<path id="Vector_3" d="M90.8943 179.246C90.8943 196.643 77.9512 195.701 61.9851 195.701C46.0189 195.701 33.0758 196.643 33.0758 179.246C33.0758 161.849 46.0189 132.702 61.9851 132.702C77.9512 132.702 90.8943 161.849 90.8943 179.246Z" fill="#3F3D56"/>
<path id="Vector_4" d="M348.962 195.231H14.2731V196.171H348.962V195.231Z" fill="#3F3D56"/>
<path id="Vector_5" d="M105.408 151.452L95.5367 160.855L87.5456 152.392L99.7674 146.28L105.408 151.452Z" fill="#A0616A"/>
<path id="Vector_6" d="M92.6864 153.309C92.6864 153.309 104.645 152.528 103.247 156.02C101.85 159.511 104.813 172.346 104.813 172.346C104.813 172.346 109.256 195.396 95.2058 186.224C81.1555 177.052 84.213 170.68 84.213 170.68C84.213 170.68 80.1126 164.48 80.9863 162.297C81.86 160.115 88.8032 151.734 90.1337 152.784C90.4763 153.086 90.8922 153.294 91.34 153.386C91.7878 153.479 92.252 153.452 92.6864 153.309Z" fill="#2F2E41"/>
<path id="Vector_7" d="M88.4856 114.31C88.4856 114.31 141.133 110.079 145.364 120.892C149.595 131.706 141.133 139.698 141.133 139.698L106.818 156.623L95.8736 146.831L102.118 141.109C102.118 141.109 66.8625 147.691 65.9223 142.519C64.9822 137.347 69.6829 110.079 88.4856 114.31Z" fill="#2F2E41"/>
<path id="Vector_8" d="M149.595 123.713C149.595 123.713 158.996 150.041 149.595 148.631C140.193 147.22 141.133 126.064 141.133 126.064L149.595 123.713Z" fill="#A0616A"/>
<path id="Vector_9" d="M128.677 69.882C128.677 69.882 134.552 72.9379 133.612 76.6991C132.672 80.4602 137.373 103.967 137.373 103.967L151.475 124.654L139.723 128.885C139.723 128.885 124.681 119.012 122.331 111.96C119.98 104.908 116.69 94.0943 116.69 94.0943L128.677 69.882Z" fill="#D0CDE1"/>
<path id="Vector_10" d="M125.621 58.8336C134.188 58.8336 141.133 51.8875 141.133 43.3189C141.133 34.7504 134.188 27.8042 125.621 27.8042C117.054 27.8042 110.109 34.7504 110.109 43.3189C110.109 51.8875 117.054 58.8336 125.621 58.8336Z" fill="#A0616A"/>
<path id="Vector_11" d="M126.796 54.3673C126.796 54.3673 124.916 69.882 125.856 75.9938C126.796 82.1057 107.053 53.8971 107.053 53.8971C107.053 53.8971 115.515 47.7853 115.515 45.4346C115.515 43.0838 126.796 54.3673 126.796 54.3673Z" fill="#A0616A"/>
<path id="Vector_12" d="M144.391 37.3507C142.884 37.1711 141.36 37.1817 139.856 37.3821C138.337 37.5914 136.953 38.3649 135.98 39.5487C134.907 40.9853 134.55 43.1673 132.869 43.7902C131.867 44.1614 130.707 43.8082 129.705 44.1776C128.501 44.621 127.89 45.9518 127.57 47.1939C127.25 48.436 127.065 49.7812 126.245 50.768C125.426 51.7548 123.662 52.0864 122.936 51.0287C123.07 49.8939 123.012 48.7447 122.764 47.6293C122.634 47.0725 122.367 46.5568 121.988 46.1288C121.609 45.7008 121.129 45.374 120.592 45.1778C118.744 44.6427 117.025 46.2479 115.781 47.7149C114.537 49.1819 112.871 50.8178 111.004 50.3587C109.044 49.8769 108.375 47.4656 108.159 45.4588C107.668 40.8867 107.74 36.0319 109.951 32C113.151 26.1647 120.455 23.3328 127.046 24.2477C133.637 25.1627 139.455 29.2777 143.706 34.3972C144.398 35.2293 145.078 36.1436 145.226 37.2152" fill="#2F2E41"/>
<path id="Vector_13" d="M124.446 72.7028L119.275 67.5313L110.344 49.6658L86.3703 57.1881C86.3703 57.1881 77.9091 59.5388 72.7383 74.5834C72.7383 74.5834 41.7138 114.546 46.8846 121.128C52.0553 127.71 52.9954 127.239 61.4567 122.068C66.765 118.871 72.4492 116.344 78.3791 114.546L100.942 116.896L114.574 99.9711C114.574 99.9711 134.787 86.8071 131.497 71.7625L125.856 64.2403L124.446 72.7028Z" fill="#575A89"/>
<path id="Vector_14" d="M120.92 119.952L123.741 121.833C123.741 121.833 139.253 141.109 131.732 144.87C124.211 148.631 116.69 126.064 116.69 126.064L120.92 119.952Z" fill="#A0616A"/>
<path id="Vector_15" d="M99.6041 57.7101C100.164 57.752 100.71 57.9105 101.205 58.1754C101.701 58.4402 102.136 58.8057 102.482 59.2482C104.347 61.6216 107.127 67.2033 103.058 76.6991C99.7568 84.3034 97.0841 92.1654 95.0666 100.206C95.0666 100.206 97.4169 99.736 97.4169 101.617C97.4169 103.497 95.5367 102.557 97.4169 103.497C99.2972 104.437 98.8271 103.027 99.2972 104.437C99.7881 105.911 99.2536 105.845 100.371 106.384C101.494 107.004 102.473 107.855 103.243 108.881C103.454 109.162 103.709 109.408 103.998 109.609L121.39 118.542C121.39 118.542 123.741 127.945 116.69 127.945C116.69 127.945 73.4434 115.721 74.3836 106.318C75.3027 97.1252 77.1205 56.0265 99.6041 57.7101Z" fill="#D0CDE1"/>
<path id="Vector_16" d="M90.366 176.369V188.593L77.2041 187.653L80.0245 175.429L90.366 176.369Z" fill="#A0616A"/>
<path id="Vector_17" d="M80.9645 182.011C80.9645 182.011 91.7761 176.839 91.7761 180.601C91.7761 184.362 99.2972 195.175 99.2972 195.175C99.2972 195.175 111.989 214.921 95.5367 211.63C79.0843 208.339 79.5543 201.287 79.5543 201.287C79.5543 201.287 73.4434 197.056 73.4434 194.705C73.4434 192.354 76.7743 181.993 78.3994 182.472C78.83 182.626 79.2933 182.664 79.7433 182.583C80.1933 182.502 80.6143 182.305 80.9645 182.011Z" fill="#2F2E41"/>
<path id="Vector_18" d="M67.8026 115.251C67.8026 115.251 101.177 107.728 99.7673 119.952C98.3571 132.176 96.9468 139.228 96.9468 139.228L91.306 179.19L78.1441 177.78L77.204 170.257C77.204 170.257 74.3836 167.437 75.7938 165.556C77.204 163.675 73.4434 145.34 73.4434 145.34C73.4434 145.34 50.8801 150.041 48.9999 136.407C47.1196 122.773 51.8203 118.542 51.8203 118.542L67.8026 115.251Z" fill="#2F2E41"/>
</g>
<g id="Task3">
<path id="Vector_19" d="M280.926 159.035H196.725V159.981H280.926V159.035Z" fill="#3F3D56"/>
<path id="Vector_20" d="M280.926 165.658H196.725V166.605H280.926V165.658Z" fill="#3F3D56"/>
<path id="Vector_21" d="M280.926 172.282H196.725V173.228H280.926V172.282Z" fill="#3F3D56"/>
<path id="Vector_22" d="M217.376 135.267H198.437V150.658H217.376V135.267Z" fill="#D0CDE1"/>
<path id="Vector_23" d="M214.614 148.29H194.886V132.11H214.614V148.29ZM195.675 147.501H213.825V132.899H195.675V147.501Z" fill="#3F3D56"/>
<path id="Vector_24" d="M179.679 144.126C181.756 144.126 183.44 142.442 183.44 140.365C183.44 138.288 181.756 136.604 179.679 136.604C177.603 136.604 175.919 138.288 175.919 140.365C175.919 142.442 177.603 144.126 179.679 144.126Z" fill="#6C63FF"/>
</g>
<g id="Task1">
<path id="Vector_25" d="M158.877 35.5897C158.862 35.5405 158.845 35.4907 158.83 35.4413C158.836 35.463 158.845 35.4838 158.851 35.5055L158.877 35.5897Z" fill="#2F2E41"/>
<path id="Vector_26" d="M280.926 26.9247H196.725V27.8709H280.926V26.9247Z" fill="#3F3D56"/>
<path id="Vector_27" d="M280.926 33.5483H196.725V34.4946H280.926V33.5483Z" fill="#3F3D56"/>
<path id="Vector_28" d="M280.926 40.172H196.725V41.1182H280.926V40.172Z" fill="#3F3D56"/>
<path id="Vector_29" d="M217.376 3.15703H198.437V18.5476H217.376V3.15703Z" fill="#D0CDE1"/>
<path id="Vector_30" d="M214.614 16.1798H194.886V0H214.614V16.1798ZM195.675 15.3905H213.825V0.789255H195.675V15.3905Z" fill="#3F3D56"/>
<path id="Vector_31" d="M179.679 12.0159C181.756 12.0159 183.44 10.332 183.44 8.25476C183.44 6.17754 181.756 4.49362 179.679 4.49362C177.603 4.49362 175.919 6.17754 175.919 8.25476C175.919 10.332 177.603 12.0159 179.679 12.0159Z" fill="#6C63FF"/>
</g>
<g id="Task2">
<path id="Vector_32" d="M374 102.618H289.798V103.564H374V102.618Z" fill="#3F3D56"/>
<path id="Vector_33" d="M374 109.241H289.798V110.188H374V109.241Z" fill="#3F3D56"/>
<path id="Vector_34" d="M374 115.865H289.798V116.811H374V115.865Z" fill="#3F3D56"/>
<path id="Vector_35" d="M310.45 78.85H291.511V94.2405H310.45V78.85Z" fill="#D0CDE1"/>
<path id="Vector_36" d="M307.688 91.8728H287.959V75.693H307.688V91.8728ZM288.749 91.0835H306.899V76.4823H288.749V91.0835Z" fill="#3F3D56"/>
<path id="Vector_37" d="M272.753 87.7089C274.83 87.7089 276.514 86.0249 276.514 83.9477C276.514 81.8705 274.83 80.1866 272.753 80.1866C270.676 80.1866 268.992 81.8705 268.992 83.9477C268.992 86.0249 270.676 87.7089 272.753 87.7089Z" fill="#6C63FF"/>
</g>
</g>
</svg>
